<?xml version="1.0" encoding="UTF-8" standalone="no"?>
<!-- Created with Inkscape (http://www.inkscape.org/) -->
<svg
   xmlns:svg="http://www.w3.org/2000/svg"
   xmlns="http://www.w3.org/2000/svg"
   version="1.0"
   width="400pt"
   height="166.6208pt"
   viewBox="0 0 530.919 208.276"
   id="svg2"
   xml:space="preserve"><defs
   id="defs31" />
<g
   transform="matrix(1.29127,0,0,1.29127,-38.28786,-15.95122)"
   id="logo">
	<g
   style="fill:#0e2b55"
   id="ville_de">
		<path
   d="M 226.813,57.176 C 226.105,57.176 225.437,57.322 224.778,57.405 C 220.8,46.639 216.548,36.203 212.107,25.709 C 213.483,25.805 214.9,25.951 216.276,25.951 C 217.639,25.951 219.066,25.805 220.433,25.709 C 222.747,33.385 225.957,40.92 228.792,48.587 C 232.011,41.012 235.075,33.385 237.64,25.709 C 238.34,25.805 239.099,25.847 239.808,25.847 C 240.509,25.847 241.276,25.805 241.976,25.709 C 237.398,36.203 232.761,46.553 228.792,57.405 C 228.135,57.322 227.472,57.176 226.813,57.176"
   id="v_ville" />
		<path
   d="M 247.852,22.903 C 250.02,22.903 251.875,24.558 251.875,26.547 C 251.875,28.536 250.02,30.192 247.852,30.192 C 245.676,30.192 243.916,28.487 243.916,26.547 C 243.916,24.6 245.676,22.903 247.852,22.903 M 244.42,34.99 C 245.579,35.094 246.743,35.232 247.901,35.232 C 249.056,35.232 250.215,35.094 251.37,34.99 L 251.37,57.405 C 250.215,57.322 249.056,57.176 247.901,57.176 C 246.742,57.176 245.579,57.322 244.42,57.405 L 244.42,34.99 z "
   id="i_ville" />
		<path
   d="M 264.375,57.405 C 263.212,57.322 262.053,57.176 260.91,57.176 C 259.747,57.176 258.583,57.322 257.425,57.405 L 257.425,22.295 C 258.584,22.391 259.747,22.524 260.91,22.524 C 262.053,22.524 263.212,22.391 264.375,22.295 L 264.375,57.405"
   id="l1_ville" />
		<path
   d="M 277.384,57.405 C 276.216,57.322 275.066,57.176 273.906,57.176 C 272.743,57.176 271.593,57.322 270.428,57.405 L 270.428,22.295 C 271.592,22.391 272.742,22.524 273.906,22.524 C 275.065,22.524 276.216,22.391 277.384,22.295 L 277.384,57.405"
   id="l2_ville" />
		<path
   d="M 303.551,46.231 C 304.102,39.623 301.116,34.582 293.202,34.582 C 285.889,34.582 281.67,39.201 281.67,45.677 C 281.67,53.198 285.94,57.826 294.328,57.826 C 296.771,57.826 299.498,57.039 301.533,55.742 L 302.634,53.156 L 302.033,52.744 C 300.482,53.949 298.197,54.82 296.113,54.82 C 290.793,54.82 288.967,50.984 289.125,46.231 L 303.551,46.231 M 289.125,44.009 C 289.225,41.557 289.583,36.666 293.253,36.666 C 296.279,36.666 296.597,41.557 296.597,44.009 L 289.125,44.009 z "
   id="e_ville" />
		<path
   d="M 332.187,32.227 C 331.353,32.286 330.511,32.381 329.686,32.381 C 328.843,32.381 328.009,32.285 327.184,32.227 L 327.184,43.48 C 326.133,41.746 324.399,41.083 322.231,41.083 C 317.436,41.083 315.217,45.248 315.217,49.476 C 315.217,53.771 316.986,57.836 322.389,57.836 C 324.783,57.836 326.6,56.572 327.368,54.601 L 327.368,57.537 C 328.168,57.478 328.952,57.374 329.795,57.374 C 330.578,57.374 331.37,57.478 332.188,57.537 L 332.188,32.227 M 324.09,43.25 C 326.991,43.25 327.325,47.277 327.325,49.208 C 327.325,51.31 326.925,55.675 323.789,55.675 C 320.846,55.675 320.596,51.506 320.596,49.567 C 320.596,47.479 320.963,43.25 324.09,43.25 z "
   id="d_de" />
		<path
   d="M 350.616,49.475 C 351.016,44.718 348.865,41.082 343.162,41.082 C 337.891,41.082 334.84,44.409 334.84,49.074 C 334.84,54.504 337.925,57.835 343.962,57.835 C 345.747,57.835 347.698,57.272 349.15,56.338 L 349.95,54.462 L 349.516,54.17 C 348.391,55.033 346.764,55.675 345.28,55.675 C 341.411,55.675 340.102,52.899 340.211,49.475 L 350.616,49.475 M 340.209,47.879 C 340.292,46.11 340.551,42.574 343.194,42.574 C 345.379,42.574 345.612,46.11 345.612,47.879 L 340.209,47.879 z "
   id="e_de" />
	</g>
	<g
   style="fill:#617122"
   id="sherbrooke">
		<path
   d="M 58.893,105.85 C 52.385,105.458 48.153,100.963 46.247,93.05 L 44.375,93.05 C 43.804,97.966 42.72,102.774 41.523,107.56 C 42.353,108.161 43.224,108.719 44.112,109.211 C 48.245,108.21 58.893,105.85 58.893,105.85"
   id="s1" />
		<path
   d="M 71.335,93.75 C 71.327,99.992 67.937,103.707 64.426,104.808 C 69.183,103.961 73.144,103.391 78.539,102.631 C 81.649,98.486 83.417,93.263 83.417,87.338 C 83.409,61.217 53.514,64.068 53.514,48.662 C 53.506,42.166 56.554,37.475 64.342,37.475 C 69.925,37.475 73.665,41.344 75.645,47.39 L 77.096,47.39 C 78.105,43.529 79.085,39.764 80.281,36.112 C 78.105,33.711 71.792,30.646 64.733,30.646 C 49.781,30.646 42.01,41.499 42.01,54.59 C 42.011,82.109 71.335,75.492 71.335,93.75"
   id="s2" />
		<path
   d="M 100.204,100.309 L 100.204,88.984 C 100.204,83.005 99.804,72.194 107.3,72.194 C 113.004,72.194 113.98,78.531 113.988,87.2 L 113.988,99.667 C 117.703,99.588 121.46,99.6 125.216,99.7 L 125.208,80.504 C 125.208,75.939 124.816,72.02 121.793,68.654 C 119.099,65.681 116.001,64.364 112.27,64.364 C 107.863,64.364 103.055,67.996 100.204,71.652 L 100.204,39.306 C 98.336,39.494 96.455,39.782 94.588,39.782 C 92.733,39.782 90.856,39.495 88.976,39.306 L 88.993,101.33 C 92.632,100.93 96.389,100.588 100.204,100.309"
   id="h" />
		<path
   d="M 149.704,68.551 C 154.599,68.551 155.095,78.457 155.095,83.373 L 143.045,83.373 C 143.216,78.457 143.779,68.551 149.704,68.551 M 145.972,101.051 C 143.754,97.874 142.916,93.158 143.054,87.867 L 166.34,87.867 C 167.212,74.546 162.429,64.364 149.637,64.364 C 137.838,64.364 130.987,73.682 130.987,86.737 C 130.987,91.894 131.8,96.398 133.389,100.075 C 137.741,100.351 141.936,100.668 145.972,101.051 z "
   id="e1" />
		<path
   d="M 183.009,106.267 L 183.009,93.525 C 183.009,90.556 182.759,85.431 183.493,82.734 C 184.469,78.719 187.387,76.568 190.981,76.568 C 192.29,76.568 194.075,76.943 195.134,77.789 L 195.884,77.047 C 195.621,73.032 195.884,68.754 196.276,64.364 C 188.267,64.364 184.714,69.951 182.992,76.763 L 182.992,65.211 C 181.137,65.406 179.252,65.682 177.372,65.682 C 175.512,65.682 173.64,65.407 171.743,65.211 L 171.76,104.295 C 175.733,104.925 179.49,105.592 183.009,106.267"
   id="r1" />
		<path
   d="M 222.885,68.379 C 219.3,72.59 213.02,75.713 212.228,75.997 L 212.228,53.744 C 212.228,53.744 209.076,54.216 206.695,54.216 C 204.31,54.216 201.016,53.744 201.016,53.744 L 200.974,102.432 L 202.196,102.444 C 202.304,95.552 204.652,89.686 212.023,83.949 C 219.603,78.057 223.276,74.034 222.984,69.114 C 222.994,68.721 222.885,68.379 222.885,68.379"
   id="b1" />
		<path
   d="M 220.538,88.163 L 220.538,92.809 C 220.034,94.568 217.19,105.208 206.295,110.662 C 195.404,116.1 193.562,118.693 192.306,124.222 C 191.631,124.055 191.631,124.055 191.631,124.055 C 191.631,124.055 190.964,113.581 200.349,108.478 C 209.727,103.365 216.932,99.555 220.538,88.163"
   style="fill:#0e2b55"
   id="bcentre" />
		<path
   d="M 228.931,76.927 C 228.698,77.131 228.476,77.327 228.272,77.515 C 230.136,81.847 234.922,93.426 229.014,102.536 C 224.14,110.07 216.36,112.205 210.981,113.022 L 210.981,113.63 C 213.166,114.122 215.576,114.681 217.873,115.265 C 224.744,114.748 232.053,112.329 235.785,103.049 C 240.209,92.074 232.242,80.625 228.931,76.927"
   id="b2" />
		<path
   d="M 242.945,65.211 C 244.813,65.406 246.693,65.682 248.586,65.682 C 250.458,65.682 252.334,65.407 254.198,65.211 L 254.198,76.764 C 255.912,69.951 259.485,64.365 267.466,64.365 C 267.04,68.755 266.811,73.033 267.049,77.048 L 266.323,77.79 C 265.256,76.944 263.496,76.569 262.166,76.569 C 258.605,76.569 255.666,78.72 254.703,82.735 C 253.969,85.432 254.206,90.557 254.206,93.526 L 254.214,110.412 L 242.961,110.412 L 242.945,65.211"
   id="r2" />
		<path
   d="M 289.684,111.237 C 302.476,111.237 309.788,100.896 309.788,86.737 C 309.788,72.931 302.042,64.364 289.759,64.364 C 277.283,64.364 269.883,74.154 269.883,88.771 C 269.9,102.577 277.634,111.237 289.684,111.237 M 290.243,68.551 C 295.697,68.551 297.715,76.194 297.715,85.244 C 297.732,95.493 295.955,106.876 289.685,107.034 C 282.597,107.034 281.938,94.475 281.938,88.488 C 281.937,77.515 283.647,68.551 290.243,68.551 z "
   id="o1" />
		<path
   d="M 333.221,111.237 C 345.98,111.237 353.292,100.896 353.292,86.737 C 353.292,72.931 345.554,64.364 333.254,64.364 C 320.796,64.364 313.391,74.154 313.407,88.771 C 313.408,102.577 321.129,111.237 333.221,111.237 M 333.755,68.551 C 339.225,68.551 341.234,76.194 341.234,85.244 C 341.243,95.493 339.466,106.876 333.22,107.034 C 326.116,107.034 325.449,94.475 325.449,88.488 C 325.45,77.515 327.184,68.551 333.755,68.551 z "
   id="o2" />
		<path
   d="M 357.688,53.916 C 359.555,54.086 361.423,54.374 363.308,54.374 C 365.176,54.374 367.06,54.086 368.92,53.916 L 368.928,85.152 C 369.178,85.431 369.336,85.353 369.645,85.244 C 375.033,79.028 379.927,72.306 385.29,65.211 C 386.415,65.406 387.558,65.682 388.775,65.682 C 389.934,65.682 391.051,65.407 392.227,65.211 L 392.227,65.861 C 388.058,71.915 382.854,76.568 378.626,82.271 L 385.122,94.192 C 387.832,99.129 390.476,104.166 393.127,109.661 L 393.119,110.411 L 380.727,110.411 C 378.142,104.732 374.531,97.453 371.212,91.769 C 370.628,90.736 369.994,89.351 368.919,88.693 L 368.919,110.411 L 357.687,110.411 L 357.687,53.916"
   id="k1" />
		<path
   d="M 404.369,87.867 C 404.127,97.453 407.079,105.175 415.693,105.175 C 419.028,105.175 422.689,103.415 425.215,101.006 L 426.208,101.835 L 424.406,107.034 C 421.145,109.661 416.76,111.237 412.765,111.237 C 399.255,111.237 392.327,101.922 392.327,86.737 C 392.327,73.682 399.165,64.364 410.98,64.364 C 423.739,64.364 428.55,74.546 427.667,87.867 L 404.369,87.867 M 416.443,83.373 C 416.443,78.457 415.943,68.551 411.056,68.551 C 405.102,68.551 404.527,78.457 404.368,83.373 L 416.443,83.373 z "
   id="e2" />
	</g>
	<g
   style="fill:#0e2b55"
   id="bas">
		<path
   d="M 350.424,130.758 C 350.332,130.458 350.032,130.258 349.732,130.308 C 349.315,130.392 308.655,138.114 270.534,134.719 C 246.826,132.568 222.861,128.357 199.233,122.228 L 196.31,121.469 C 172.319,115.165 147.828,111.396 123.524,110.22 C 84.544,108.344 42.746,120.451 42.329,120.569 C 42.02,120.669 41.841,120.986 41.92,121.302 C 41.995,121.603 42.304,121.785 42.629,121.736 C 43.021,121.636 83.527,113.298 121.673,116.716 C 145.335,118.834 170.847,123.237 193.529,129.099 L 194.321,129.308 L 195.697,129.674 C 226.709,137.996 252.56,140.899 268.774,141.858 C 307.738,144.168 349.583,131.592 350,131.476 C 350.299,131.375 350.5,131.066 350.424,130.758"
   id="bas1" />
		<path
   d="M 427.467,134.494 L 401.5,134.494 C 401.467,134.494 401.409,134.511 401.358,134.511 L 372.014,142.317 C 370.062,142.834 323.481,155.025 278.101,152.54 C 243.036,150.589 218.078,144.71 203.16,141.208 L 186.783,137.563 L 184.778,137.113 C 171.115,133.628 149.546,129.041 124.534,127.09 C 90.607,124.455 42.834,134.412 42.363,134.512 C 42.088,134.578 41.892,134.812 41.892,135.104 L 41.892,164.715 C 41.892,165.04 42.159,165.308 42.484,165.308 L 427.469,165.308 C 427.802,165.308 428.077,165.04 428.077,164.715 L 428.077,135.104 C 428.076,134.761 427.8,134.494 427.467,134.494"
   id="bas2" />
	</g>
</g>
</svg>